<?xml version="1.0" ?><svg width="512px" height="512px" viewBox="0 0 512 512" xmlns="http://www.w3.org/2000/svg"><g id="Blackboard"><path d="M46,330.4332v26.219a13.1555,13.1555,0,0,0,13.157,13.156h66.2894l-24.3445,66.8875c-9.1794,27.3587,30.5631,41.822,41.1118,14.9632l7.4982-20.5986H362.29l7.496,20.5986c10.553,26.8631,50.3,12.388,41.1118-14.9632l-24.3445-66.8865-46.5592-.001,12.74,35.0021h-193.47l12.74-35.0021h280.84A13.1551,13.1551,0,0,0,466,356.6522v-26.219Z"/><path d="M247.2521,247.3477a13.1631,13.1631,0,0,1,13.1635-13.1624H391.5887a13.163,13.163,0,0,1,13.1634,13.1624v56.8355H439.75V59.1917a13.1341,13.1341,0,0,0-13.1335-13.1335H85.3835A13.1341,13.1341,0,0,0,72.25,59.1917V304.1832H247.2521Z"/><rect height="43.75" width="105" x="273.5" y="260.4332"/></g></svg>